<svg width="32" height="24" viewBox="0 0 32 24" fill="none" xmlns="http://www.w3.org/2000/svg">
<path d="M14.8444 3.52941C14.8444 1.94118 14.1333 0 10.8444 0C9.24444 0 8.62222 0.441177 7.82222 0.970588C6.93333 1.58824 5.77778 2.38235 3.46667 2.38235C1.95556 2.38235 0.888889 2.11765 0 1.76471C0.977778 4.14706 3.37778 7.14706 9.51111 7.14706C12.7111 7.05882 14.8444 5.20588 14.8444 3.52941Z" fill="#690DB9"/>
<path d="M21.9556 16.5C18.8444 16.5 16.9778 15.5294 16 14.7353C15.0222 15.5294 13.1556 16.5 10.0444 16.5C5.15556 16.5 3.46667 10.0588 3.02223 8.11765C2.66667 7.94118 2.4 7.85294 2.04445 7.67647L2.48889 11.7353C3.28889 18.6176 11.8222 23.2059 16 23.5588C19.9111 23.1176 28.4444 18.6176 29.3333 11.7353L29.7778 7.58824C29.5111 7.76471 29.1556 7.94118 28.8 8.11765C28.5333 10.1471 26.8444 16.5 21.9556 16.5Z" fill="#690DB9"/>
<path d="M24.2667 0.970588C23.4667 0.441177 22.7556 0 21.2444 0C17.9556 0 17.2444 1.94118 17.2444 3.52941C17.2444 5.20588 19.3778 7.05882 22.4889 7.05882C28.6222 7.05882 31.0222 4.05882 32 1.67647C31.1111 2.02941 30.0444 2.29412 28.6222 2.29412C26.3111 2.38235 25.1556 1.58824 24.2667 0.970588Z" fill="#690DB9"/>
</svg>
